<svg width="38" height="72" viewBox="0 0 38 72" fill="none" xmlns="http://www.w3.org/2000/svg">
<g filter="url(#filter0_d_8240_91493)">
<rect x="7" y="20" width="24" height="24" rx="6" fill="url(#paint0_radial_8240_91493)" shape-rendering="crispEdges"/>
<rect x="7.5" y="20.5" width="23" height="23" rx="5.5" stroke="url(#paint1_radial_8240_91493)" shape-rendering="crispEdges"/>
<path d="M23.9987 32.3334C23.9987 31.4134 24.7454 30.6667 25.6654 30.6667V30C25.6654 27.3334 24.9987 26.6667 22.332 26.6667H15.6654C12.9987 26.6667 12.332 27.3334 12.332 30V30.3334C13.252 30.3334 13.9987 31.08 13.9987 32C13.9987 32.92 13.252 33.6667 12.332 33.6667V34C12.332 36.6667 12.9987 37.3334 15.6654 37.3334H22.332C24.9987 37.3334 25.6654 36.6667 25.6654 34C24.7454 34 23.9987 33.2534 23.9987 32.3334Z" stroke="white" stroke-width="1.5" stroke-linecap="round" stroke-linejoin="round"/>
<path d="M17 33.8333L21 29.8333" stroke="white" stroke-width="1.5" stroke-linecap="round" stroke-linejoin="round"/>
<path d="M20.9976 33.8333H21.0036" stroke="white" stroke-width="2" stroke-linecap="round" stroke-linejoin="round"/>
<path d="M16.9976 30.1666H17.0036" stroke="white" stroke-width="2" stroke-linecap="round" stroke-linejoin="round"/>
</g>
<defs>
<filter id="filter0_d_8240_91493" x="-17" y="0" width="72" height="72" filterUnits="userSpaceOnUse" color-interpolation-filters="sRGB">
<feFlood flood-opacity="0" result="BackgroundImageFix"/>
<feColorMatrix in="SourceAlpha" type="matrix" values="0 0 0 0 0 0 0 0 0 0 0 0 0 0 0 0 0 0 127 0" result="hardAlpha"/>
<feOffset dy="4"/>
<feGaussianBlur stdDeviation="12"/>
<feComposite in2="hardAlpha" operator="out"/>
<feColorMatrix type="matrix" values="0 0 0 0 0.254902 0 0 0 0 0.341176 0 0 0 0 0.996078 0 0 0 0.34 0"/>
<feBlend mode="normal" in2="BackgroundImageFix" result="effect1_dropShadow_8240_91493"/>
<feBlend mode="normal" in="SourceGraphic" in2="effect1_dropShadow_8240_91493" result="shape"/>
</filter>
<radialGradient id="paint0_radial_8240_91493" cx="0" cy="0" r="1" gradientTransform="matrix(0.148146 26.625 -29.7085 1.05914 19 20)" gradientUnits="userSpaceOnUse">
<stop stop-color="#4157FE"/>
<stop offset="1" stop-color="#4157FE" stop-opacity="0.57"/>
</radialGradient>
<radialGradient id="paint1_radial_8240_91493" cx="0" cy="0" r="1" gradientUnits="userSpaceOnUse" gradientTransform="translate(18.6875 20) rotate(90) scale(24 16.2532)">
<stop stop-color="#E2E6FF"/>
<stop offset="1" stop-color="#4157FE"/>
</radialGradient>
</defs>
</svg>
