<svg width="38" height="72" viewBox="0 0 38 72" fill="none" xmlns="http://www.w3.org/2000/svg">
<g filter="url(#filter0_d_8240_91488)">
<rect x="7" y="20" width="24" height="24" rx="6" fill="url(#paint0_radial_8240_91488)" shape-rendering="crispEdges"/>
<rect x="7.5" y="20.5" width="23" height="23" rx="5.5" stroke="url(#paint1_radial_8240_91488)" shape-rendering="crispEdges"/>
<path d="M24.63 28.0707C24.788 28.1498 24.9082 28.2884 24.9641 28.456C25.0199 28.6236 25.007 28.8066 24.928 28.9647C24.6927 29.436 24.2614 29.8487 23.8267 30.138C23.6327 30.2673 23.4134 30.3887 23.1827 30.4827C23.376 30.956 23.5154 31.466 23.5934 32H24.9987C25.1755 32 25.3451 32.0702 25.4701 32.1953C25.5951 32.3203 25.6654 32.4899 25.6654 32.6667C25.6654 32.8435 25.5951 33.013 25.4701 33.1381C25.3451 33.2631 25.1755 33.3333 24.9987 33.3333H23.6574C23.6211 34.0955 23.4542 34.8457 23.164 35.5513C23.5454 35.7713 23.806 36.1247 23.97 36.4513C24.2025 36.9349 24.3261 37.4635 24.332 38C24.3318 38.1699 24.2668 38.3334 24.1501 38.4569C24.0335 38.5805 23.8741 38.6548 23.7044 38.6648C23.5348 38.6747 23.3678 38.6196 23.2375 38.5105C23.1072 38.4014 23.0234 38.2467 23.0034 38.078L22.9987 38C22.9987 37.7507 22.9314 37.356 22.7774 37.048C22.6907 36.8747 22.604 36.7753 22.5207 36.722C21.6854 37.896 20.45 38.6667 18.9987 38.6667C17.5474 38.6667 16.312 37.896 15.4767 36.722C15.3927 36.7753 15.3067 36.8753 15.22 37.0487C15.08 37.3466 15.0045 37.6708 14.9987 38C14.9987 38.1768 14.9285 38.3464 14.8034 38.4714C14.6784 38.5964 14.5088 38.6667 14.332 38.6667C14.1552 38.6667 13.9857 38.5964 13.8606 38.4714C13.7356 38.3464 13.6654 38.1768 13.6654 38C13.6714 37.4637 13.7949 36.9353 14.0274 36.452C14.1914 36.124 14.452 35.772 14.8334 35.552C14.5431 34.8461 14.3763 34.0957 14.34 33.3333H12.9987C12.8219 33.3333 12.6523 33.2631 12.5273 33.1381C12.4023 33.013 12.332 32.8435 12.332 32.6667C12.332 32.4899 12.4023 32.3203 12.5273 32.1953C12.6523 32.0702 12.8219 32 12.9987 32H14.404C14.4794 31.4795 14.6172 30.9701 14.8147 30.4827C14.5891 30.3895 14.3734 30.274 14.1707 30.138C13.7367 29.8487 13.304 29.436 13.0694 28.9647C12.9939 28.8127 12.9792 28.6376 13.0283 28.4751C13.0775 28.3127 13.1867 28.1751 13.3338 28.0904C13.4809 28.0057 13.6548 27.9803 13.8199 28.0194C13.9851 28.0585 14.1291 28.1591 14.2227 28.3007L14.2614 28.3687C14.3594 28.564 14.5947 28.818 14.91 29.0287C15.234 29.2447 15.5194 29.3333 15.6654 29.3333H22.332C22.478 29.3333 22.7634 29.2447 23.0874 29.0287C23.364 28.844 23.578 28.6267 23.6927 28.4447L23.736 28.3687C23.8151 28.2107 23.9537 28.0905 24.1214 28.0346C24.289 27.9788 24.4719 27.9917 24.63 28.0707ZM21.804 30.6667H16.1934C15.8614 31.336 15.6654 32.1347 15.6654 33C15.6654 35.206 16.89 36.8487 18.332 37.2427V32.6667C18.332 32.4899 18.4023 32.3203 18.5273 32.1953C18.6523 32.0702 18.8219 32 18.9987 32C19.1755 32 19.3451 32.0702 19.4701 32.1953C19.5951 32.3203 19.6654 32.4899 19.6654 32.6667V37.2427C21.1074 36.8487 22.332 35.206 22.332 33C22.332 32.1347 22.136 31.336 21.804 30.6667ZM18.9987 26C19.5838 26 20.1586 26.154 20.6653 26.4466C21.172 26.7392 21.5928 27.1599 21.8854 27.6667L22.4654 28.6667H15.532L16.1114 27.6667C16.404 27.1599 16.8249 26.739 17.3317 26.4464C17.8385 26.1539 18.4135 25.9999 18.9987 26Z" fill="white"/>
</g>
<defs>
<filter id="filter0_d_8240_91488" x="-17" y="0" width="72" height="72" filterUnits="userSpaceOnUse" color-interpolation-filters="sRGB">
<feFlood flood-opacity="0" result="BackgroundImageFix"/>
<feColorMatrix in="SourceAlpha" type="matrix" values="0 0 0 0 0 0 0 0 0 0 0 0 0 0 0 0 0 0 127 0" result="hardAlpha"/>
<feOffset dy="4"/>
<feGaussianBlur stdDeviation="12"/>
<feComposite in2="hardAlpha" operator="out"/>
<feColorMatrix type="matrix" values="0 0 0 0 0.254902 0 0 0 0 0.341176 0 0 0 0 0.996078 0 0 0 0.34 0"/>
<feBlend mode="normal" in2="BackgroundImageFix" result="effect1_dropShadow_8240_91488"/>
<feBlend mode="normal" in="SourceGraphic" in2="effect1_dropShadow_8240_91488" result="shape"/>
</filter>
<radialGradient id="paint0_radial_8240_91488" cx="0" cy="0" r="1" gradientTransform="matrix(0.148146 26.625 -29.7085 1.05914 19 20)" gradientUnits="userSpaceOnUse">
<stop stop-color="#4157FE"/>
<stop offset="1" stop-color="#4157FE" stop-opacity="0.57"/>
</radialGradient>
<radialGradient id="paint1_radial_8240_91488" cx="0" cy="0" r="1" gradientUnits="userSpaceOnUse" gradientTransform="translate(18.6875 20) rotate(90) scale(24 16.2532)">
<stop stop-color="#E2E6FF"/>
<stop offset="1" stop-color="#4157FE"/>
</radialGradient>
</defs>
</svg>
