<svg width="18" height="18" viewBox="0 0 18 18" fill="none" xmlns="http://www.w3.org/2000/svg">
<path d="M12.4593 15C13.4643 15.0075 14.4318 14.6325 15.1743 13.9575C17.6268 11.8125 16.3143 7.5075 13.0818 7.1025C11.9268 0.0974996 1.82425 2.7525 4.21675 9.42" stroke="#191F38" stroke-width="1.5" stroke-miterlimit="10" stroke-linecap="round" stroke-linejoin="round"/>
<path d="M5.45953 9.7275C5.06203 9.525 4.61953 9.42 4.17703 9.4275C0.682032 9.675 0.689532 14.76 4.17703 15.0075" stroke="#191F38" stroke-width="1.5" stroke-miterlimit="10" stroke-linecap="round" stroke-linejoin="round"/>
<path d="M11.8633 7.4175C12.2533 7.2225 12.6733 7.1175 13.1083 7.11" stroke="#191F38" stroke-width="1.5" stroke-miterlimit="10" stroke-linecap="round" stroke-linejoin="round"/>
<path d="M6.92134 14.37H7.67134V16.1175C7.67134 16.3725 7.99384 16.5 8.15884 16.305L9.99634 14.2125C10.2213 13.9575 10.1238 13.7475 9.78634 13.7475H9.03634V12C9.03634 11.745 8.71384 11.6175 8.54884 11.8125L6.71134 13.905C6.48634 14.16 6.58384 14.37 6.92134 14.37Z" stroke="#191F38" stroke-width="1.5" stroke-miterlimit="10" stroke-linecap="round" stroke-linejoin="round"/>
</svg>
