<svg width="28" height="28" viewBox="0 0 28 28" fill="none" xmlns="http://www.w3.org/2000/svg">
<rect x="0.5" y="0.5" width="27" height="27" rx="7.5" fill="white"/>
<rect x="0.5" y="0.5" width="27" height="27" rx="7.5" stroke="#EBEBEB"/>
<path d="M14 6.4375C16.1014 6.4375 17.8125 8.14864 17.8125 10.25C17.8125 12.3514 16.1014 14.0625 14 14.0625C11.8986 14.0625 10.1875 12.3514 10.1875 10.25C10.1875 8.14864 11.8986 6.4375 14 6.4375ZM14 6.5625C11.9689 6.5625 10.3125 8.21886 10.3125 10.25C10.3125 12.2811 11.9689 13.9375 14 13.9375C16.0311 13.9375 17.6875 12.2811 17.6875 10.25C17.6875 8.21886 16.0311 6.5625 14 6.5625Z" stroke="#697588"/>
<path d="M14.001 16.1875C14.7152 16.1875 15.4124 16.2793 16.0859 16.4688L16.0889 16.4697C16.1192 16.4783 16.139 16.5081 16.1289 16.5449C16.1205 16.5754 16.0897 16.5951 16.0527 16.585C15.3911 16.3997 14.7014 16.3125 14.001 16.3125C10.5969 16.3125 7.62109 18.5363 7.62109 21.5C7.62109 21.5131 7.61585 21.5287 7.60156 21.543C7.58727 21.5573 7.57166 21.5625 7.55859 21.5625C7.54553 21.5625 7.52991 21.5573 7.51562 21.543C7.50134 21.5287 7.49609 21.5131 7.49609 21.5C7.49609 18.6568 10.3234 16.1876 14.001 16.1875Z" stroke="#697588"/>
<path d="M18.5 15.4375C19.3787 15.4375 20.209 15.8128 20.7725 16.4531L20.7754 16.4561C21.28 17.0188 21.5625 17.7409 21.5625 18.5C21.5625 18.7418 21.5301 18.9815 21.4678 19.2061L21.4619 19.2314C21.3992 19.5136 21.2785 19.8118 21.1152 20.0693L21.1055 20.085C20.5747 20.9931 19.5714 21.5625 18.5 21.5625C17.7412 21.5625 17.0208 21.2797 16.459 20.7695L16.4531 20.7646L16.4482 20.7607L16.2871 20.6104C16.132 20.4527 15.9929 20.2719 15.8789 20.0771L15.874 20.0693L15.7744 19.8926C15.5562 19.4717 15.4375 18.9914 15.4375 18.5C15.4375 17.6935 15.7461 16.9404 16.3018 16.3652C16.8818 15.7658 17.6594 15.4375 18.5 15.4375ZM18.5 15.5625C17.6967 15.5625 16.954 15.88 16.3965 16.4463L16.3936 16.4502C15.862 16.9997 15.5625 17.7236 15.5625 18.5C15.5625 19.0265 15.7045 19.5468 15.9814 20L15.9805 20.001C16.1279 20.2589 16.3195 20.4852 16.5342 20.6748V20.6758C16.5352 20.6768 16.537 20.6777 16.5381 20.6787C16.5398 20.6802 16.5412 20.6821 16.543 20.6836V20.6826C17.0831 21.1742 17.777 21.4453 18.5 21.4453C19.5203 21.4453 20.485 20.905 21.0117 20.0264L21.0127 20.0273C21.1675 19.7724 21.2849 19.481 21.3496 19.1943C21.4104 18.9613 21.4375 18.7367 21.4375 18.5078C21.4375 17.7857 21.1676 17.0934 20.6865 16.5547H20.6875C20.1386 15.9143 19.3373 15.5625 18.5 15.5625Z" fill="#697588" stroke="#697588"/>
<path d="M19.6253 19.0475H17.3828C17.0753 19.0475 16.8203 18.7925 16.8203 18.485C16.8203 18.1775 17.0753 17.9225 17.3828 17.9225H19.6253C19.9328 17.9225 20.1878 18.1775 20.1878 18.485C20.1878 18.7925 19.9328 19.0475 19.6253 19.0475Z" fill="#697588"/>
<path d="M18.5 20.195C18.1925 20.195 17.9375 19.94 17.9375 19.6325V17.39C17.9375 17.0825 18.1925 16.8275 18.5 16.8275C18.8075 16.8275 19.0625 17.0825 19.0625 17.39V19.6325C19.0625 19.9475 18.8075 20.195 18.5 20.195Z" fill="#697588"/>
</svg>
