<svg width="20" height="20" viewBox="0 0 20 20" fill="none" xmlns="http://www.w3.org/2000/svg">
<path fill-rule="evenodd" clip-rule="evenodd" d="M16.2425 9.84378C15.8365 9.94773 15.4191 10.0002 15 10H14.9875V10.2713C14.9875 11.4075 15.1662 12.5438 15.54 13.635L16.0037 15.0263H3.96625V15.0113L4.42875 13.62C4.79107 12.5354 4.97801 11.3998 4.9825 10.2563V7.50503C4.9825 6.80128 5.1325 6.11378 5.41625 5.48503C5.7 4.84253 6.10375 4.27378 6.6275 3.81003C7.15125 3.33253 7.765 2.97253 8.4225 2.76378C9.095 2.53878 9.7975 2.46378 10.485 2.53878L10.635 2.56128C10.8624 2.15429 11.1455 1.78109 11.4762 1.45253C11.1902 1.37571 10.899 1.31932 10.605 1.28378C9.7375 1.19378 8.855 1.28378 8.0175 1.56753C7.18 1.83628 6.4175 2.28503 5.775 2.88378C5.12864 3.4665 4.61387 4.18027 4.265 4.97753C3.91474 5.77442 3.73139 6.63459 3.72625 7.50503V10.255C3.72463 11.2617 3.56303 12.2616 3.2475 13.2175L2.5 15.4288L3.09875 16.2513H7.48C7.48 16.9088 7.74875 17.5513 8.2125 18.0163C8.675 18.4788 9.31875 18.7488 9.9775 18.7488C10.6362 18.7488 11.2775 18.48 11.7412 18.0163C12.205 17.5525 12.475 16.9088 12.475 16.2513H16.8562L17.4537 15.4288L16.7212 13.2163C16.4043 12.256 16.2427 11.2513 16.2425 10.24V9.84378ZM9.9775 17.525C10.142 17.5237 10.3047 17.4899 10.4561 17.4255C10.6076 17.3612 10.7448 17.2675 10.86 17.15C10.9779 17.0363 11.0708 16.8991 11.1326 16.7473C11.1943 16.5956 11.2237 16.4326 11.2187 16.2688H8.72125C8.72125 16.5975 8.855 16.9125 9.095 17.1513C9.21028 17.2686 9.34757 17.362 9.49901 17.4261C9.65044 17.4902 9.81305 17.5238 9.9775 17.525Z" fill="white"/>
<path d="M15 8.75C15.4925 8.75 15.9801 8.653 16.4351 8.46455C16.89 8.27609 17.3034 7.99987 17.6517 7.65165C17.9999 7.30343 18.2761 6.89003 18.4645 6.43506C18.653 5.98009 18.75 5.49246 18.75 5C18.75 4.50754 18.653 4.01991 18.4645 3.56494C18.2761 3.10997 17.9999 2.69657 17.6517 2.34835C17.3034 2.00013 16.89 1.72391 16.4351 1.53545C15.9801 1.347 15.4925 1.25 15 1.25C14.0054 1.25 13.0516 1.64509 12.3483 2.34835C11.6451 3.05161 11.25 4.00544 11.25 5C11.25 5.99456 11.6451 6.94839 12.3483 7.65165C13.0516 8.35491 14.0054 8.75 15 8.75Z" fill="#DC2626"/>
</svg>
