<svg width="24" height="24" viewBox="0 0 24 24" fill="none" xmlns="http://www.w3.org/2000/svg">
<rect width="24" height="24" rx="6" fill="#FDBF00"/>
<path d="M12.114 17.182C10.6393 17.182 9.41667 16.6967 8.446 15.726C7.47533 14.746 6.99 13.5373 6.99 12.1C6.99 10.6627 7.47533 9.45867 8.446 8.488C9.41667 7.508 10.6393 7.018 12.114 7.018C13.0007 7.018 13.8173 7.228 14.564 7.648C15.32 8.068 15.908 8.63733 16.328 9.356L14.928 10.168C14.6667 9.68267 14.284 9.3 13.78 9.02C13.2853 8.73067 12.73 8.586 12.114 8.586C11.0687 8.586 10.2193 8.91733 9.566 9.58C8.922 10.2427 8.6 11.0827 8.6 12.1C8.6 13.1173 8.922 13.9573 9.566 14.62C10.2193 15.2827 11.0687 15.614 12.114 15.614C12.73 15.614 13.29 15.474 13.794 15.194C14.298 14.9047 14.676 14.5173 14.928 14.032L16.328 14.83C15.9173 15.5487 15.334 16.1227 14.578 16.552C13.8313 16.972 13.01 17.182 12.114 17.182Z" fill="white"/>
</svg>
