<svg width="28" height="28" viewBox="0 0 28 28" fill="none" xmlns="http://www.w3.org/2000/svg">
<rect x="0.5" y="0.5" width="27" height="27" rx="7.5" fill="white"/>
<rect x="0.5" y="0.5" width="27" height="27" rx="7.5" stroke="#EBEBEB"/>
<path d="M21.4775 18.7475C21.4775 19.0175 21.4175 19.295 21.29 19.565C21.1625 19.835 20.9975 20.09 20.78 20.33C20.4125 20.735 20.0075 21.0275 19.55 21.215C19.1 21.4025 18.6125 21.5 18.0875 21.5C17.3225 21.5 16.505 21.32 15.6425 20.9525C14.78 20.585 13.9175 20.09 13.0625 19.4675C12.2 18.8375 11.3825 18.14 10.6025 17.3675C9.83 16.5875 9.1325 15.77 8.51 14.915C7.895 14.06 7.4 13.205 7.04 12.3575C6.68 11.5025 6.5 10.685 6.5 9.905C6.5 9.395 6.59 8.9075 6.77 8.4575C6.95 8 7.235 7.58 7.6325 7.205C8.1125 6.7325 8.6375 6.5 9.1925 6.5C9.4025 6.5 9.6125 6.545 9.8 6.635C9.995 6.725 10.1675 6.86 10.3025 7.055L12.0425 9.5075C12.1775 9.695 12.275 9.8675 12.3425 10.0325C12.41 10.19 12.4475 10.3475 12.4475 10.49C12.4475 10.67 12.395 10.85 12.29 11.0225C12.1925 11.195 12.05 11.375 11.87 11.555L11.3 12.1475C11.2175 12.23 11.18 12.3275 11.18 12.4475C11.18 12.5075 11.1875 12.56 11.2025 12.62C11.225 12.68 11.2475 12.725 11.2625 12.77C11.3975 13.0175 11.63 13.34 11.96 13.73C12.2975 14.12 12.6575 14.5175 13.0475 14.915C13.4525 15.3125 13.8425 15.68 14.24 16.0175C14.63 16.3475 14.9525 16.5725 15.2075 16.7075C15.245 16.7225 15.29 16.745 15.3425 16.7675C15.4025 16.79 15.4625 16.7975 15.53 16.7975C15.6575 16.7975 15.755 16.7525 15.8375 16.67L16.4075 16.1075C16.595 15.92 16.775 15.7775 16.9475 15.6875C17.12 15.5825 17.2925 15.53 17.48 15.53C17.6225 15.53 17.7725 15.56 17.9375 15.6275C18.1025 15.695 18.275 15.7925 18.4625 15.92L20.945 17.6825C21.14 17.8175 21.275 17.975 21.3575 18.1625C21.4325 18.35 21.4775 18.5375 21.4775 18.7475Z" stroke="#697588" stroke-width="1.5" stroke-miterlimit="10"/>
</svg>
