<svg width="38" height="58" viewBox="0 0 38 58" fill="none" xmlns="http://www.w3.org/2000/svg">
<g filter="url(#filter0_d_7744_88318)">
<rect x="7.5" y="13" width="24" height="24" rx="6" fill="url(#paint0_radial_7744_88318)"/>
<rect x="8" y="13.5" width="23" height="23" rx="5.5" stroke="url(#paint1_radial_7744_88318)"/>
</g>
<path d="M19.2134 30.9996H15.4464V19.3633H19.3327C20.4729 19.3633 21.4521 19.5962 22.2702 20.0621C23.0884 20.5243 23.7153 21.189 24.1509 22.0565C24.5903 22.9201 24.81 23.9561 24.81 25.1644C24.81 26.3765 24.5884 27.4182 24.1452 28.2894C23.7058 29.1606 23.0695 29.8311 22.2362 30.3008C21.4028 30.7667 20.3952 30.9996 19.2134 30.9996ZM17.2021 29.4655H19.1168C20.0032 29.4655 20.7399 29.2989 21.3271 28.9655C21.9142 28.6284 22.3536 28.1417 22.6452 27.5053C22.9369 26.8652 23.0827 26.0849 23.0827 25.1644C23.0827 24.2515 22.9369 23.4769 22.6452 22.8405C22.3574 22.2042 21.9274 21.7212 21.3555 21.3917C20.7835 21.0621 20.0733 20.8974 19.2248 20.8974H17.2021V29.4655Z" fill="white"/>
<defs>
<filter id="filter0_d_7744_88318" x="-9.5" y="0" width="58" height="58" filterUnits="userSpaceOnUse" color-interpolation-filters="sRGB">
<feFlood flood-opacity="0" result="BackgroundImageFix"/>
<feColorMatrix in="SourceAlpha" type="matrix" values="0 0 0 0 0 0 0 0 0 0 0 0 0 0 0 0 0 0 127 0" result="hardAlpha"/>
<feOffset dy="4"/>
<feGaussianBlur stdDeviation="8.5"/>
<feComposite in2="hardAlpha" operator="out"/>
<feColorMatrix type="matrix" values="0 0 0 0 1 0 0 0 0 0.470588 0 0 0 0 0.0862745 0 0 0 0.49 0"/>
<feBlend mode="normal" in2="BackgroundImageFix" result="effect1_dropShadow_7744_88318"/>
<feBlend mode="normal" in="SourceGraphic" in2="effect1_dropShadow_7744_88318" result="shape"/>
</filter>
<radialGradient id="paint0_radial_7744_88318" cx="0" cy="0" r="1" gradientTransform="matrix(0.148146 26.625 -29.7085 1.05914 19.5 13)" gradientUnits="userSpaceOnUse">
<stop stop-color="#FF4B00"/>
<stop offset="1" stop-color="#FF9F00"/>
</radialGradient>
<radialGradient id="paint1_radial_7744_88318" cx="0" cy="0" r="1" gradientUnits="userSpaceOnUse" gradientTransform="translate(19.1875 13) rotate(90) scale(24 16.2532)">
<stop stop-color="#FFDBD2"/>
<stop offset="1" stop-color="#FF7816"/>
</radialGradient>
</defs>
</svg>
