<svg width="34" height="34" viewBox="0 0 34 34" fill="none" xmlns="http://www.w3.org/2000/svg">
<path d="M28.6999 14.2658H24.6539C21.3359 14.2658 18.634 11.5638 18.634 8.24579V4.1998C18.634 3.4298 18.004 2.7998 17.234 2.7998H11.298C6.98599 2.7998 3.5 5.5998 3.5 10.5978V23.0017C3.5 27.9997 6.98599 30.7997 11.298 30.7997H22.3019C26.6139 30.7997 30.0999 27.9997 30.0999 23.0017V15.6658C30.0999 14.8958 29.4699 14.2658 28.6999 14.2658ZM16.142 18.9418C15.932 19.1518 15.666 19.2498 15.4 19.2498C15.134 19.2498 14.868 19.1518 14.658 18.9418L13.65 17.9338V23.7997C13.65 24.3737 13.174 24.8497 12.6 24.8497C12.026 24.8497 11.55 24.3737 11.55 23.7997V17.9338L10.542 18.9418C10.136 19.3478 9.46398 19.3478 9.05798 18.9418C8.65198 18.5358 8.65198 17.8638 9.05798 17.4578L11.858 14.6578C11.956 14.5738 12.054 14.5038 12.166 14.4478C12.194 14.4338 12.236 14.4198 12.264 14.4058C12.348 14.3778 12.432 14.3638 12.53 14.3498C12.572 14.3498 12.6 14.3498 12.642 14.3498C12.754 14.3498 12.866 14.3778 12.978 14.4198C12.992 14.4198 12.992 14.4198 13.006 14.4198C13.118 14.4618 13.23 14.5458 13.314 14.6298C13.328 14.6438 13.342 14.6438 13.342 14.6578L16.142 17.4578C16.548 17.8638 16.548 18.5358 16.142 18.9418Z" fill="#4157FE"/>
<path d="M24.4047 12.3341C25.7347 12.3481 27.5827 12.3481 29.1647 12.3481C29.9627 12.3481 30.3827 11.4101 29.8227 10.8501C27.8067 8.82013 24.1947 5.16614 22.1227 3.09415C21.5487 2.52015 20.5547 2.91215 20.5547 3.71015V8.59613C20.5547 10.6401 22.2907 12.3341 24.4047 12.3341Z" fill="#4157FE"/>
</svg>
