<svg width="25" height="25" viewBox="0 0 25 25" fill="none" xmlns="http://www.w3.org/2000/svg">
<circle cx="12.5" cy="12.5" r="12.5" fill="#722BCC"/>
<path d="M12.92 6.5C13.91 6.5 14.735 6.83 15.395 7.49C16.065 8.15 16.4 8.97 16.4 9.95C16.4 10.92 16.065 11.74 15.395 12.41C14.735 13.07 13.91 13.4 12.92 13.4H10.775V17H9.05V6.5H12.92ZM12.92 11.78C13.43 11.78 13.85 11.61 14.18 11.27C14.51 10.92 14.675 10.48 14.675 9.95C14.675 9.42 14.51 8.985 14.18 8.645C13.85 8.295 13.43 8.12 12.92 8.12H10.775V11.78H12.92Z" fill="white"/>
</svg>
