<svg width="25" height="25" viewBox="0 0 25 25" fill="none" xmlns="http://www.w3.org/2000/svg">
<circle cx="12.5" cy="12.5" r="12.5" fill="#4157FE"/>
<path d="M15.035 17L12.815 13.175H10.775V17H9.05V6.5H13.25C14.19 6.5 14.985 6.83 15.635 7.49C16.295 8.14 16.625 8.935 16.625 9.875C16.625 10.545 16.43 11.16 16.04 11.72C15.66 12.27 15.16 12.67 14.54 12.92L16.925 17H15.035ZM10.775 8.12V11.63H13.25C13.71 11.63 14.1 11.46 14.42 11.12C14.74 10.78 14.9 10.365 14.9 9.875C14.9 9.385 14.74 8.97 14.42 8.63C14.1 8.29 13.71 8.12 13.25 8.12H10.775Z" fill="white"/>
</svg>
