<svg width="16" height="16" viewBox="0 0 16 16" fill="none" xmlns="http://www.w3.org/2000/svg">
<path d="M14 3C14 2.73478 13.8946 2.48043 13.7071 2.29289C13.5196 2.10536 13.2652 2 13 2H3C2.73478 2 2.48043 2.10536 2.29289 2.29289C2.10536 2.48043 2 2.73478 2 3V13C2 13.2652 2.10536 13.5196 2.29289 13.7071C2.48043 13.8946 2.73478 14 3 14H13C13.2652 14 13.5196 13.8946 13.7071 13.7071C13.8946 13.5196 14 13.2652 14 13V3Z" stroke="#7F899C" stroke-linejoin="round"/>
<path d="M5.33464 2V14M10.668 6.66667L9.33464 8L10.668 9.33333M7.33464 2H3.33464M7.33464 14H3.33464" stroke="#7F899C" stroke-linecap="round" stroke-linejoin="round"/>
</svg>
