<svg width="22" height="21" viewBox="0 0 22 21" fill="none" xmlns="http://www.w3.org/2000/svg">
<path d="M17.189 20.0752L17.46 19.6182L16.169 18.8542L15.898 19.3122L17.189 20.0752ZM14.54 19.6182L14.811 20.0762L16.102 19.3122L15.831 18.8542L14.54 19.6182ZM15.898 19.3122C15.9088 19.2945 15.9237 19.2796 15.9415 19.2688C15.9592 19.2581 15.9793 19.2517 16 19.2502C16.027 19.2502 16.075 19.2662 16.102 19.3122L14.812 20.0762C15.343 20.9752 16.657 20.9742 17.189 20.0752L15.898 19.3122ZM15.25 10.7502H16.75V9.25025H15.25V10.7502ZM20.25 14.2502V14.7502H21.75V14.2502H20.25ZM11.75 14.7502V14.2502H10.25V14.7502H11.75ZM10.25 14.7502C10.25 15.3222 10.25 15.7892 10.275 16.1692C10.302 16.5562 10.358 16.9072 10.497 17.2442L11.883 16.6702C11.833 16.5472 11.793 16.3772 11.772 16.0672C11.7515 15.6286 11.7442 15.1894 11.75 14.7502H10.25ZM13.908 17.7462C13.28 17.7362 13.016 17.6942 12.83 17.6162L12.256 19.0032C12.731 19.1992 13.254 19.2352 13.882 19.2462L13.908 17.7462ZM10.498 17.2442C10.8276 18.0405 11.46 18.6732 12.256 19.0032L12.83 17.6172C12.4013 17.4396 12.0606 17.099 11.883 16.6702L10.498 17.2442ZM20.25 14.7502C20.25 15.3432 20.25 15.7502 20.228 16.0672C20.207 16.3772 20.168 16.5472 20.117 16.6702L21.503 17.2442C21.642 16.9072 21.698 16.5562 21.724 16.1692C21.75 15.7892 21.75 15.3222 21.75 14.7502H20.25ZM18.118 19.2462C18.746 19.2352 19.268 19.1992 19.744 19.0032L19.17 17.6172C18.984 17.6942 18.72 17.7352 18.092 17.7462L18.118 19.2462ZM20.117 16.6702C19.9394 17.099 19.5987 17.4396 19.17 17.6172L19.744 19.0032C20.1384 18.8398 20.4968 18.6002 20.7986 18.2983C21.1004 17.9963 21.3398 17.6388 21.503 17.2442L20.117 16.6702ZM16.75 10.7502C17.583 10.7502 18.155 10.7502 18.596 10.7932C19.025 10.8332 19.251 10.9082 19.414 11.0082L20.198 9.72825C19.76 9.46025 19.277 9.35125 18.738 9.29925C18.209 9.24925 17.554 9.25025 16.75 9.25025V10.7502ZM21.75 14.2502C21.75 13.4462 21.75 12.7902 21.7 12.2632C21.65 11.7232 21.541 11.2402 21.272 10.8022L19.992 11.5862C20.092 11.7492 20.166 11.9762 20.207 12.4052C20.249 12.8452 20.25 13.4172 20.25 14.2502H21.75ZM19.414 11.0082C19.65 11.1522 19.848 11.3502 19.992 11.5862L21.272 10.8022C21.0037 10.3648 20.6357 9.99711 20.198 9.72925L19.414 11.0082ZM15.25 9.25025C14.446 9.25025 13.79 9.25025 13.263 9.30025C12.723 9.35025 12.24 9.46025 11.802 9.72925L12.586 11.0082C12.749 10.9082 12.976 10.8342 13.405 10.7932C13.845 10.7512 14.417 10.7502 15.25 10.7502V9.25025ZM11.75 14.2502C11.75 13.4172 11.75 12.8452 11.793 12.4052C11.833 11.9752 11.908 11.7492 12.008 11.5852L10.728 10.8022C10.46 11.2402 10.351 11.7232 10.299 12.2622C10.249 12.7912 10.25 13.4462 10.25 14.2502H11.75ZM11.802 9.72925C11.3647 9.99723 10.997 10.3649 10.729 10.8022L12.008 11.5862C12.152 11.3502 12.35 11.1522 12.586 11.0082L11.802 9.72925ZM15.831 18.8542C15.733 18.6892 15.634 18.5192 15.534 18.3822C15.4134 18.2102 15.2581 18.0654 15.078 17.9572L14.324 19.2532C14.287 19.2322 14.284 19.2132 14.322 19.2662C14.37 19.3312 14.428 19.4282 14.54 19.6182L15.831 18.8542ZM13.881 19.2462C14.108 19.2502 14.227 19.2522 14.311 19.2622C14.382 19.2702 14.364 19.2762 14.324 19.2532L15.078 17.9572C14.8931 17.8535 14.6882 17.7901 14.477 17.7712C14.307 17.7522 14.107 17.7492 13.907 17.7462L13.881 19.2462ZM17.46 19.6182C17.572 19.4282 17.63 19.3312 17.678 19.2662C17.717 19.2132 17.713 19.2322 17.676 19.2532L16.922 17.9572C16.716 18.0772 16.575 18.2332 16.466 18.3822C16.366 18.5192 16.266 18.6882 16.169 18.8542L17.46 19.6182ZM18.092 17.7462C17.894 17.7492 17.693 17.7522 17.523 17.7712C17.339 17.7912 17.13 17.8352 16.922 17.9572L17.676 19.2532C17.636 19.2762 17.618 19.2702 17.688 19.2622C17.773 19.2522 17.892 19.2502 18.118 19.2462L18.092 17.7462Z" fill="#4157FE"/>
<path d="M9 1.00024L4 19.0002M18 1.00024L16.194 7.50024M21 7.00024H3M1 14.0002H8" stroke="#4157FE" stroke-width="2" stroke-linecap="round" stroke-linejoin="round"/>
</svg>
