<svg width="28" height="28" viewBox="0 0 28 28" fill="none" xmlns="http://www.w3.org/2000/svg">
<rect x="0.5" y="0.5" width="27" height="27" rx="7.5" fill="white"/>
<rect x="0.5" y="0.5" width="27" height="27" rx="7.5" stroke="#EBEBEB"/>
<path d="M7.00098 14.141C6.96593 12.2413 7.67268 10.4509 8.9873 9.10779C10.3023 7.77187 12.0639 7.03748 13.9639 7.03748C17.8426 7.0375 21.0008 10.1959 21.001 14.0746V18.35C21.001 18.363 20.9957 18.3787 20.9814 18.3929C20.9672 18.4071 20.9515 18.4125 20.9385 18.4125C20.9255 18.4124 20.9097 18.4071 20.8955 18.3929C20.8814 18.3787 20.876 18.363 20.876 18.35V14.0746C20.8758 10.2665 17.7802 7.1625 13.9639 7.16248C12.0997 7.16248 10.3654 7.8822 9.07715 9.1947C7.8619 10.4327 7.1825 12.0551 7.12891 13.7943L7.12598 14.1351V18.4174C7.12598 18.4416 7.11738 18.4589 7.10645 18.4701C7.09597 18.4808 7.08222 18.4877 7.06348 18.4877C7.05048 18.4876 7.03467 18.4823 7.02051 18.4681C7.00635 18.4539 7.00103 18.4382 7.00098 18.4252V14.141Z" stroke="#697588"/>
<path d="M9.455 14.3375H9.3575C7.7825 14.3375 6.5 15.62 6.5 17.195V18.605C6.5 20.18 7.7825 21.4625 9.3575 21.4625H9.455C11.03 21.4625 12.3125 20.18 12.3125 18.605V17.195C12.3125 15.62 11.03 14.3375 9.455 14.3375Z" fill="#697588"/>
<path d="M18.6425 14.3375H18.545C16.97 14.3375 15.6875 15.62 15.6875 17.195V18.605C15.6875 20.18 16.97 21.4625 18.545 21.4625H18.6425C20.2175 21.4625 21.5 20.18 21.5 18.605V17.195C21.5 15.62 20.2175 14.3375 18.6425 14.3375Z" fill="#697588"/>
</svg>
