<svg width="28" height="28" viewBox="0 0 28 28" fill="none" xmlns="http://www.w3.org/2000/svg">
<rect x="0.5" y="0.5" width="27" height="27" rx="7.5" fill="white"/>
<rect x="0.5" y="0.5" width="27" height="27" rx="7.5" stroke="#EBEBEB"/>
<path d="M14.0149 7.1825C11.5324 7.1825 9.51494 9.2 9.51494 11.6825V13.85C9.51494 14.3075 9.31994 15.005 9.08744 15.395L8.22494 16.8275C7.69244 17.7125 8.05994 18.695 9.03494 19.025C12.2674 20.105 15.7549 20.105 18.9874 19.025C19.8949 18.725 20.2924 17.6525 19.7974 16.8275L18.9349 15.395C18.7099 15.005 18.5149 14.3075 18.5149 13.85V11.6825C18.5149 9.2075 16.4899 7.1825 14.0149 7.1825Z" stroke="#697588" stroke-width="1.5" stroke-miterlimit="10" stroke-linecap="round"/>
<path d="M15.4039 7.39996C15.1714 7.33246 14.9314 7.27996 14.6839 7.24996C13.9639 7.15996 13.2739 7.21246 12.6289 7.39996C12.8464 6.84496 13.3864 6.45496 14.0164 6.45496C14.6464 6.45496 15.1864 6.84496 15.4039 7.39996Z" fill="#697588"/>
<path d="M16.2656 19.295C16.2656 20.5325 15.2531 21.545 14.0156 21.545C13.4006 21.545 12.8306 21.29 12.4256 20.885C12.0206 20.48 11.7656 19.91 11.7656 19.295" fill="#697588"/>
<path d="M16.2656 19.295C16.2656 20.5325 15.2531 21.545 14.0156 21.545C13.4006 21.545 12.8306 21.29 12.4256 20.885C12.0206 20.48 11.7656 19.91 11.7656 19.295" stroke="#697588" stroke-width="1.5" stroke-miterlimit="10"/>
</svg>
