<svg width="28" height="28" viewBox="0 0 28 28" fill="none" xmlns="http://www.w3.org/2000/svg">
<rect x="0.5" y="0.5" width="27" height="27" rx="7.5" fill="white"/>
<rect x="0.5" y="0.5" width="27" height="27" rx="7.5" stroke="#EBEBEB"/>
<g clip-path="url(#clip0_2520_76658)">
<path d="M6.10193 21.1024C5.99651 21.2081 5.93736 21.3512 5.9375 21.5005C5.93764 21.6497 5.99706 21.7928 6.10268 21.8982C6.2083 22.0036 6.35148 22.0628 6.50071 22.0626C6.64994 22.0625 6.79301 22.0031 6.89843 21.8974L6.10193 21.1024ZM10.3882 18.4039C10.4906 18.2978 10.5472 18.1557 10.5459 18.0082C10.5445 17.8607 10.4853 17.7197 10.381 17.6154C10.2766 17.5112 10.1355 17.4521 9.98802 17.4509C9.84053 17.4497 9.69847 17.5064 9.59243 17.6089L10.3882 18.4039ZM16.5937 9.10994L18.9052 11.4244L19.7009 10.6294L17.3894 8.31494L16.5937 9.10994ZM11.9512 19.1749L8.86343 16.0842L8.06843 16.8799L11.1554 19.9692L11.9512 19.1749ZM17.9767 15.7197L16.5389 16.2597L16.9349 17.3127L18.3727 16.7734L17.9767 15.7197ZM11.7764 11.4799L12.2977 10.0587L11.2409 9.67094L10.7204 11.0929L11.7764 11.4799ZM9.53243 13.5469C10.0664 13.3999 10.4722 13.2964 10.8044 13.0579L10.1467 12.1444C10.0177 12.2382 9.84893 12.2929 9.23393 12.4624L9.53243 13.5469ZM10.7204 11.0929C10.5007 11.6929 10.4317 11.8564 10.3282 11.9779L11.1847 12.7077C11.4494 12.3964 11.5852 11.9997 11.7764 11.4799L10.7204 11.0929ZM10.8044 13.0579C10.9449 12.9564 11.0717 12.8397 11.1847 12.7077L10.3282 11.9779C10.2744 12.0404 10.2135 12.0963 10.1467 12.1444L10.8044 13.0579ZM16.5389 16.2597C16.0222 16.4547 15.6284 16.5927 15.3194 16.8597L16.0559 17.7117C16.1759 17.6067 16.3387 17.5362 16.9349 17.3127L16.5389 16.2597ZM15.5774 18.7999C15.7462 18.1857 15.8009 18.0177 15.8939 17.8879L14.9797 17.2324C14.7419 17.5647 14.6392 17.9697 14.4922 18.5022L15.5774 18.7999ZM15.3194 16.8604C15.1914 16.9704 15.0782 17.0949 14.9797 17.2324L15.8947 17.8879C15.9412 17.8219 15.9949 17.7637 16.0559 17.7117L15.3194 16.8604ZM8.86343 16.0834C8.37893 15.5982 8.05043 15.2682 7.83743 15.0004C7.62293 14.7312 7.60118 14.6149 7.60043 14.5632L6.47543 14.5699C6.47843 15.0064 6.69518 15.3724 6.95693 15.7009C7.21943 16.0309 7.60268 16.4134 8.06768 16.8784L8.86343 16.0834ZM9.23393 12.4624C8.59943 12.6379 8.07743 12.7804 7.68668 12.9379C7.29668 13.0939 6.92693 13.3054 6.70943 13.6834L7.68518 14.2444C7.71068 14.1994 7.78718 14.1094 8.10518 13.9819C8.42318 13.8544 8.87168 13.7292 9.53243 13.5469L9.23393 12.4624ZM7.60043 14.5624C7.59978 14.4509 7.62877 14.3411 7.68443 14.2444L6.70943 13.6834C6.55426 13.953 6.4735 14.2589 6.47543 14.5699L7.60043 14.5624ZM11.1554 19.9692C11.6234 20.4372 12.0082 20.8242 12.3389 21.0874C12.6697 21.3514 13.0379 21.5689 13.4774 21.5697L13.4789 20.4447C13.4264 20.4447 13.3102 20.4229 13.0402 20.2077C12.7702 19.9932 12.4387 19.6632 11.9512 19.1749L11.1554 19.9692ZM14.4929 18.5014C14.3092 19.1674 14.1839 19.6189 14.0557 19.9392C13.9267 20.2602 13.8359 20.3367 13.7909 20.3622L14.3482 21.3394C14.7299 21.1219 14.9422 20.7499 15.0997 20.3577C15.2572 19.9647 15.4012 19.4389 15.5774 18.7999L14.4929 18.5014ZM13.4774 21.5697C13.7827 21.5697 14.0827 21.4909 14.3482 21.3394L13.7909 20.3622C13.6959 20.4163 13.5883 20.4448 13.4789 20.4447L13.4774 21.5697ZM18.9052 11.4244C19.7032 12.2224 20.2552 12.7767 20.5927 13.2342C20.9257 13.6827 20.9639 13.9219 20.9234 14.1094L22.0229 14.3472C22.1654 13.6887 21.9029 13.1119 21.4972 12.5644C21.0967 12.0244 20.4727 11.4012 19.7009 10.6294L18.9052 11.4244ZM18.3727 16.7719C19.3934 16.3887 20.2199 16.0797 20.8072 15.7534C21.4034 15.4234 21.8804 15.0064 22.0229 14.3472L20.9234 14.1094C20.8829 14.2969 20.7494 14.4994 20.2612 14.7694C19.7639 15.0462 19.0327 15.3222 17.9767 15.7189L18.3727 16.7719ZM17.3894 8.31494C16.6124 7.53719 15.9854 6.90794 15.4432 6.50444C14.8927 6.09644 14.3122 5.83169 13.6507 5.97794L13.8937 7.07594C14.0812 7.03469 14.3204 7.07219 14.7719 7.40819C15.2317 7.74944 15.7904 8.30519 16.5937 9.10994L17.3894 8.31494ZM12.2969 10.0579C12.6884 8.99069 12.9614 8.25044 13.2352 7.74794C13.5052 7.25294 13.7062 7.11794 13.8937 7.07594L13.6514 5.97794C12.9899 6.12344 12.5752 6.60794 12.2474 7.20944C11.9242 7.80344 11.6197 8.63894 11.2409 9.67094L12.2969 10.0579ZM6.89693 21.8974L10.3882 18.4039L9.59243 17.6089L6.10118 21.1024L6.89693 21.8974Z" fill="#697588"/>
</g>
<defs>
<clipPath id="clip0_2520_76658">
<rect width="18" height="18" fill="white" transform="translate(5 5)"/>
</clipPath>
</defs>
</svg>
