<svg width="20" height="20" viewBox="0 0 20 20" fill="none" xmlns="http://www.w3.org/2000/svg">
<g clip-path="url(#clip0_8141_88498)">
<path d="M17.2621 5.93992L17.0571 6.41159C17.0251 6.4884 16.971 6.554 16.9018 6.60015C16.8325 6.6463 16.7512 6.67092 16.668 6.67092C16.5847 6.67092 16.5034 6.6463 16.4341 6.60015C16.3649 6.554 16.3108 6.4884 16.2788 6.41159L16.0738 5.93992C15.7134 5.10553 15.0533 4.43652 14.2238 4.06492L13.5913 3.78242C13.5146 3.74713 13.4496 3.69057 13.404 3.61945C13.3584 3.54833 13.3342 3.46564 13.3342 3.38117C13.3342 3.29671 13.3584 3.21402 13.404 3.1429C13.4496 3.07178 13.5146 3.01522 13.5913 2.97992L14.1888 2.71409C15.0391 2.33191 15.7105 1.63816 16.0646 0.775758L16.2763 0.266591C16.3073 0.187719 16.3613 0.120006 16.4313 0.0722786C16.5013 0.0245511 16.5841 -0.000976563 16.6688 -0.000976562C16.7535 -0.000976562 16.8363 0.0245511 16.9063 0.0722786C16.9763 0.120006 17.0303 0.187719 17.0613 0.266591L17.2721 0.774924C17.6259 1.63749 18.297 2.33154 19.1471 2.71409L19.7455 2.98076C19.822 3.01616 19.8867 3.07271 19.9321 3.14374C19.9775 3.21476 20.0017 3.2973 20.0017 3.38159C20.0017 3.46589 19.9775 3.54842 19.9321 3.61945C19.8867 3.69047 19.822 3.74702 19.7455 3.78242L19.1121 4.06409C18.2828 4.43606 17.623 5.10536 17.263 5.93992M7.08463 4.99992H5.41797V14.9999H7.08463V4.99992ZM3.33464 8.33326H1.66797V11.6666H3.33464V8.33326ZM10.8346 1.66659H9.16797V18.3333H10.8346V1.66659ZM14.5846 6.66659H12.918V14.9999H14.5846V6.66659ZM18.3346 8.33326H16.668V11.6666H18.3346V8.33326Z" fill="white"/>
</g>
<defs>
<clipPath id="clip0_8141_88498">
<rect width="20" height="20" fill="white"/>
</clipPath>
</defs>
</svg>
