<svg width="16" height="15" viewBox="0 0 16 15" fill="none" xmlns="http://www.w3.org/2000/svg">
<path d="M8.01985 7.9981L1.70104 8.609L0.038266 13.9269C-0.0608777 14.2413 0.0363776 14.585 0.286586 14.8003C0.535848 15.0155 0.889939 15.0609 1.18644 14.9164L15.0344 8.21059C15.3054 8.0784 15.4772 7.80363 15.4772 7.50242C15.4772 7.20121 15.3053 6.92645 15.0344 6.79425L1.19587 0.0836024C0.899377 -0.060864 0.545299 -0.0155414 0.296013 0.199742C0.0457835 0.415027 -0.0514607 0.757778 0.0476931 1.07221L1.71046 6.39006L8.01696 7.00191C8.2719 7.0274 8.46641 7.24174 8.46641 7.49762C8.46641 7.75352 8.27191 7.96784 8.01696 7.99334L8.01985 7.9981Z" fill="#4157FE"/>
</svg>
