<svg width="28" height="28" viewBox="0 0 28 28" fill="none" xmlns="http://www.w3.org/2000/svg">
<rect x="0.5" y="0.5" width="27" height="27" rx="7.5" fill="white"/>
<rect x="0.5" y="0.5" width="27" height="27" rx="7.5" stroke="#EBEBEB"/>
<g clip-path="url(#clip0_2557_87349)">
<path d="M12.4016 8.40005C12.4016 9.2837 13.1179 10 14.0016 10C14.8852 10 15.6016 9.2837 15.6016 8.40005C15.6016 7.51639 14.8852 6.80005 14.0016 6.80005C13.1179 6.80005 12.4016 7.51639 12.4016 8.40005Z" fill="#7F899C"/>
<path d="M12.4016 13.2C12.4016 14.0836 13.1179 14.8 14.0016 14.8C14.8852 14.8 15.6016 14.0836 15.6016 13.2C15.6016 12.3163 14.8852 11.6 14.0016 11.6C13.1179 11.6 12.4016 12.3163 12.4016 13.2Z" fill="#7F899C"/>
<path d="M12.4016 18.8C12.4016 19.6836 13.1179 20.4 14.0016 20.4C14.8852 20.4 15.6016 19.6836 15.6016 18.8C15.6016 17.9163 14.8852 17.2 14.0016 17.2C13.1179 17.2 12.4016 17.9163 12.4016 18.8Z" fill="#7F899C"/>
</g>
<defs>
<clipPath id="clip0_2557_87349">
<rect width="16" height="16" fill="white" transform="translate(22 6) rotate(90)"/>
</clipPath>
</defs>
</svg>
