<svg width="28" height="28" viewBox="0 0 28 28" fill="none" xmlns="http://www.w3.org/2000/svg">
<rect x="0.5" y="0.5" width="27" height="27" rx="7.5" fill="white"/>
<rect x="0.5" y="0.5" width="27" height="27" rx="7.5" stroke="#EBEBEB"/>
<path d="M14.3975 20.3151H9.6575C7.2875 20.3151 6.5 18.7401 6.5 17.1576V10.8426C6.5 8.47256 7.2875 7.68506 9.6575 7.68506H14.3975C16.7675 7.68506 17.555 8.47256 17.555 10.8426V17.1576C17.555 19.5276 16.76 20.3151 14.3975 20.3151Z" stroke="#697588" stroke-width="1.5" stroke-linecap="round" stroke-linejoin="round"/>
<path d="M19.6397 17.825L17.5547 16.3625V11.63L19.6397 10.1675C20.6597 9.45498 21.4997 9.88998 21.4997 11.1425V16.8575C21.4997 18.11 20.6597 18.545 19.6397 17.825Z" stroke="#697588" stroke-width="1.5" stroke-linecap="round" stroke-linejoin="round"/>
<path d="M13.625 13.25C14.2463 13.25 14.75 12.7463 14.75 12.125C14.75 11.5037 14.2463 11 13.625 11C13.0037 11 12.5 11.5037 12.5 12.125C12.5 12.7463 13.0037 13.25 13.625 13.25Z" fill="#697588" stroke="#697588" stroke-width="1.5" stroke-linecap="round" stroke-linejoin="round"/>
</svg>
